<?xml version="1.0" encoding="UTF-8" standalone="no"?>
<svg
   xmlns:svg="http://www.w3.org/2000/svg"
   xmlns="http://www.w3.org/2000/svg"
   version="1.1"
   width="696.10712"
   height="183.58121"
   id="svg5622">
  <defs
     id="defs5624">
    <linearGradient
       x1="-11.8782"
       y1="0"
       x2="11.8782"
       y2="0"
       id="linearGradient54"
       gradientUnits="userSpaceOnUse"
       gradientTransform="matrix(3.3030369,4.0398409,4.0398409,-3.3030369,117.14709,431.40398)"
       spreadMethod="pad">
      <stop
         id="stop56"
         style="stop-color:#ffffff;stop-opacity:1"
         offset="0" />
      <stop
         id="stop58"
         style="stop-color:#00aeef;stop-opacity:1"
         offset="1" />
    </linearGradient>
  </defs>
  <g
     transform="translate(-46.23336,-406.28587)"
     id="layer1">
    <path
       d="m 308.47089,588.77624 c -0.74761,0.20148 -1.43689,0.36055 -2.07846,0.4825 -0.64157,0.12725 -1.27783,0.21717 -1.89819,0.28122 -0.62036,0.0475 -1.26193,0.0742 -1.93531,0.0742 -1.71261,0 -3.21843,-0.18028 -4.55459,-0.53553 -1.33616,-0.36055 -2.49734,-0.85365 -3.47825,-1.50582 -0.9703,-0.65217 -1.78154,-1.4316 -2.4231,-2.33828 -0.63097,-0.89077 -1.10286,-1.88758 -1.41569,-2.97453 -0.30753,-1.09226 -0.4719,-2.24284 -0.4719,-3.47825 0.008,-1.24072 0.16416,-2.38599 0.46129,-3.41992 0.30244,-1.04454 0.7264,-1.96712 1.24072,-2.80487 0.53552,-0.81654 1.14527,-1.52703 1.85047,-2.12088 0.67338,-0.56734 1.4422,-1.04454 2.32236,-1.41569 0.87487,-0.37667 1.83457,-0.66278 2.8738,-0.84305 1.02863,-0.19639 2.12088,-0.29183 3.26086,-0.29183 0.38727,-0.004 0.87486,0.017 1.47931,0.0742 0.58855,0.0424 1.27253,0.14337 2.06256,0.30243 0.79003,0.15907 1.6755,0.39237 2.67231,0.7052 l -0.44539,4.53338 c -0.44008,-0.23329 -0.93849,-0.46659 -1.51112,-0.69459 -0.56734,-0.22269 -1.17709,-0.40296 -1.83987,-0.55142 -0.67338,-0.14338 -1.35736,-0.21718 -2.08377,-0.2227 -0.75291,0.004 -1.42629,0.0904 -2.00953,0.2596 -0.58855,0.16967 -1.09756,0.38727 -1.54294,0.65747 -0.44009,0.2702 -0.82185,0.56734 -1.13468,0.88547 -0.36055,0.35546 -0.68398,0.79003 -0.9703,1.29904 -0.28123,0.49841 -0.49841,1.06044 -0.67338,1.6861 -0.15907,0.62566 -0.2439,1.29904 -0.2439,2.02544 0,1.09226 0.18536,2.04666 0.53022,2.8685 0.34443,0.83244 0.83775,1.52173 1.46871,2.07316 0.63096,0.55673 1.36797,0.97561 2.21102,1.26192 0.85896,0.28632 1.77624,0.42948 2.78366,0.42948 0.51961,0 1.08165,-0.053 1.6755,-0.13234 0.57794,-0.0793 1.17708,-0.20148 1.77623,-0.36564 0.60446,-0.15907 1.1983,-0.34995 1.77624,-0.58854 l 0.26511,4.38492 z m 9.50686,-16.38382 -5.16435,0 0,-4.15163 15.91192,0 0,4.15163 -5.15905,0 0,16.86632 -5.58852,0 0,-16.86632 z m 22.02006,5.55141 1.4422,0 c 0.23329,0.004 0.51431,-0.017 0.82184,-0.053 0.31304,-0.0339 0.62036,-0.10605 0.94379,-0.21718 0.31813,-0.11156 0.60975,-0.28632 0.87486,-0.51431 0.2227,-0.20149 0.39746,-0.42418 0.51432,-0.67869 0.11665,-0.2439 0.20148,-0.4931 0.2439,-0.74231 0.0424,-0.24899 0.0585,-0.47189 0.053,-0.67338 0.004,-0.28122 -0.0212,-0.54082 -0.0742,-0.79533 -0.0424,-0.25959 -0.14295,-0.50901 -0.28632,-0.75291 -0.14295,-0.23839 -0.35546,-0.4719 -0.63096,-0.67868 -0.27572,-0.19088 -0.57264,-0.33934 -0.86956,-0.42418 -0.30753,-0.0904 -0.59915,-0.14846 -0.88547,-0.17476 -0.27572,-0.0254 -0.51431,-0.0339 -0.70519,-0.0339 l -1.4422,0 0,5.73698 z m 1.07634,-9.70304 c 0.55674,0 1.16649,0.008 1.83987,0.053 0.67338,0.0339 1.34676,0.11664 2.05195,0.24941 0.7052,0.13786 1.38918,0.33934 2.03075,0.63627 0.66277,0.29183 1.24602,0.68928 1.76563,1.19829 0.52492,0.49311 0.93319,1.14528 1.24072,1.93531 0.30753,0.77412 0.46129,1.72322 0.47189,2.84198 0.008,0.76882 -0.10604,1.53234 -0.33934,2.25874 -0.23838,0.74231 -0.65217,1.4422 -1.2195,2.09437 -0.52492,0.54613 -1.10286,0.98091 -1.72322,1.30434 -0.62036,0.32323 -1.25662,0.56734 -1.87698,0.7211 -0.63627,0.16968 -1.22481,0.2596 -1.77094,0.30753 -0.55673,0.053 -1.01272,0.0742 -1.38918,0.0636 l -2.15799,0 0,7.35416 -5.58853,0 0,-21.01794 6.66487,0 z m 24.46438,4.3266 -0.0636,0 -2.70412,8.22372 5.24918,0 -2.48143,-8.22372 z m -3.43053,-4.3266 6.84515,0 8.06996,21.01795 -6.11345,0 -1.57475,-4.47507 -7.85787,0 -1.64899,4.47507 -5.67336,0 7.95331,-21.01795 z m 24.84083,9.97345 -6.05511,-9.97345 6.51641,0 3.50475,6.94589 3.6055,-6.94589 6.11345,0 -6.11345,9.97345 6.7179,11.0445 -6.66487,0 -4.04559,-7.74653 -4.02967,7.74653 -6.32553,0 6.77621,-11.0445 z m 29.40604,-6.18237 c -0.69459,0.004 -1.29374,0.11156 -1.80806,0.33934 -0.50901,0.2333 -0.93849,0.54083 -1.28313,0.91728 -0.35504,0.38728 -0.63096,0.81654 -0.85366,1.29374 -0.2176,0.4772 -0.38727,0.965 -0.5037,1.46871 -0.10605,0.50371 -0.19088,0.98621 -0.2333,1.4475 -0.0382,0.4825 -0.0581,0.88547 -0.0475,1.25132 -0.008,0.36564 0.008,0.78473 0.0475,1.25663 0.0424,0.46129 0.12725,0.94909 0.2333,1.4475 0.11664,0.50901 0.28631,0.99151 0.5037,1.47401 0.2227,0.4719 0.49841,0.90138 0.85366,1.28844 0.34486,0.37624 0.77412,0.68398 1.28313,0.90668 0.51432,0.23329 1.11347,0.34994 1.80806,0.35546 0.71579,-0.004 1.31494,-0.12174 1.81865,-0.35546 0.51432,-0.2227 0.9491,-0.53022 1.29374,-0.90668 0.34995,-0.38727 0.63626,-0.81654 0.85366,-1.28844 0.22269,-0.4825 0.38727,-0.965 0.4931,-1.47401 0.11665,-0.49841 0.19597,-0.98621 0.23839,-1.4475 0.0254,-0.4719 0.0479,-0.89077 0.0479,-1.25663 0,-0.36564 -0.0212,-0.76882 -0.0479,-1.25132 -0.0424,-0.46129 -0.12217,-0.94379 -0.23839,-1.4475 -0.10604,-0.50371 -0.27062,-0.99151 -0.4931,-1.46871 -0.21761,-0.4772 -0.50371,-0.90668 -0.85366,-1.29374 -0.34486,-0.37667 -0.77942,-0.68398 -1.29374,-0.91728 -0.50371,-0.22821 -1.10286,-0.33425 -1.81865,-0.33934 m 0,-4.14632 c 0.45599,-0.004 0.99681,0.0212 1.61717,0.0742 0.62566,0.0585 1.27783,0.18579 1.97772,0.36606 0.70519,0.18028 1.41039,0.4666 2.12088,0.84305 0.7105,0.36564 1.38388,0.87487 2.02545,1.51113 0.61505,0.62036 1.10285,1.28313 1.47931,2.00954 0.37116,0.7264 0.64157,1.4422 0.83775,2.1792 0.18536,0.73701 0.30244,1.4369 0.36606,2.11028 0.0636,0.66278 0.0904,1.25132 0.0904,1.77094 0,0.52492 -0.0254,1.11346 -0.0904,1.77624 -0.0636,0.66807 -0.18027,1.37857 -0.36606,2.09967 -0.19597,0.73701 -0.46659,1.46871 -0.83775,2.18981 -0.37667,0.7211 -0.86426,1.39448 -1.47931,2.00954 -0.64157,0.63096 -1.31495,1.13997 -2.02545,1.51112 -0.71049,0.37116 -1.41569,0.65218 -2.12088,0.84305 -0.69989,0.18028 -1.35206,0.30753 -1.97772,0.36055 -0.62036,0.0636 -1.16118,0.0848 -1.61717,0.0742 -0.45069,0.0127 -0.98091,-0.008 -1.60127,-0.0742 -0.62036,-0.053 -1.28313,-0.18027 -1.99893,-0.36055 -0.69989,-0.19087 -1.41569,-0.47189 -2.13149,-0.84305 -0.70519,-0.37115 -1.37327,-0.88016 -2.00953,-1.51112 -0.59915,-0.62566 -1.08696,-1.30435 -1.45281,-2.03075 -0.36606,-0.71049 -0.64157,-1.4422 -0.83775,-2.17921 -0.19088,-0.7211 -0.31813,-1.42629 -0.37667,-2.08906 -0.0691,-0.66808 -0.10095,-1.25132 -0.0904,-1.77624 -0.008,-0.51962 0.0212,-1.10816 0.0797,-1.77094 0.0585,-0.67338 0.18537,-1.37327 0.37667,-2.11028 0.18536,-0.737 0.46129,-1.4528 0.83775,-2.1792 0.36606,-0.72641 0.85365,-1.38918 1.46341,-2.00954 0.63626,-0.63626 1.31494,-1.14528 2.03074,-1.51113 0.70519,-0.38176 1.42099,-0.67338 2.12088,-0.85365 0.7158,-0.18537 1.37858,-0.30202 1.99893,-0.35546 0.60976,-0.0636 1.13998,-0.0904 1.59067,-0.0742 m 22.56088,8.6744 1.56415,0 c 0.37115,0.004 0.76882,-0.0212 1.1983,-0.0691 0.41866,-0.0636 0.82184,-0.16415 1.2036,-0.31813 0.38727,-0.14846 0.70519,-0.37115 0.94379,-0.67868 0.23839,-0.29141 0.37116,-0.67868 0.37116,-1.15588 0.008,-0.27063 -0.0297,-0.53552 -0.11156,-0.79003 -0.0691,-0.24899 -0.23839,-0.4825 -0.4719,-0.67868 -0.22269,-0.19597 -0.55673,-0.36055 -1.00742,-0.4772 -0.43478,-0.12216 -1.01802,-0.18579 -1.73382,-0.18579 l -1.95651,0 0,4.35311 z m 0,8.73804 1.89289,0 c 0.32364,0 0.66277,-0.017 1.03393,-0.053 0.35546,-0.0339 0.7211,-0.10053 1.06044,-0.19088 0.35546,-0.0848 0.65217,-0.21761 0.90668,-0.39237 0.27571,-0.18027 0.47719,-0.38176 0.60445,-0.58854 0.13785,-0.20148 0.22269,-0.40848 0.27571,-0.61506 0.0382,-0.20148 0.0581,-0.40848 0.0581,-0.59384 0,-0.48781 -0.10095,-0.90138 -0.30201,-1.25132 -0.207,-0.36055 -0.54613,-0.65218 -1.02333,-0.87487 -0.11155,-0.053 -0.2545,-0.10053 -0.47189,-0.15906 -0.21209,-0.0581 -0.49311,-0.11665 -0.86426,-0.16968 -0.37667,-0.0382 -0.85896,-0.0691 -1.45811,-0.0691 l -1.71261,0 0,4.95757 z m -5.58322,-17.0572 9.63941,0 c 0.27571,0 0.63096,0.0212 1.07104,0.0581 0.42948,0.0382 0.90668,0.12173 1.41569,0.23329 0.51431,0.12217 1.02333,0.30753 1.53234,0.54083 0.50901,0.23329 0.965,0.55143 1.39978,0.94379 0.41357,0.39745 0.74761,0.89607 1.00742,1.48462 0.25451,0.60975 0.38176,1.31494 0.38176,2.158 0,0.77942 -0.10605,1.4422 -0.32365,1.99362 -0.21209,0.55674 -0.50901,1.03393 -0.85365,1.39448 -0.37116,0.36564 -0.76882,0.66278 -1.193,0.89608 -0.44008,0.2282 -0.88017,0.41357 -1.31495,0.53022 l 0,0.0691 c 0.33934,0.0479 0.7105,0.12725 1.09756,0.2545 0.38727,0.11665 0.76352,0.29693 1.13467,0.52492 0.36607,0.2227 0.7158,0.51432 1.00742,0.86426 0.29692,0.36055 0.54083,0.79533 0.7158,1.29904 0.18027,0.51432 0.27571,1.10816 0.28632,1.80275 -0.008,0.63096 -0.0954,1.193 -0.22779,1.6808 -0.14294,0.50371 -0.33934,0.92789 -0.56203,1.30965 -0.22269,0.37115 -0.4719,0.67338 -0.7264,0.94379 -0.26002,0.26002 -0.51431,0.46659 -0.74761,0.62036 -0.44008,0.30752 -0.92789,0.54082 -1.4369,0.7317 -0.51962,0.18579 -1.05514,0.32874 -1.58006,0.42418 -0.53552,0.10604 -1.04983,0.16967 -1.55354,0.21209 -0.48781,0.0339 -0.93849,0.0479 -1.34146,0.0479 l -8.82817,0 0,-21.01794 z m 32.65628,4.3266 -0.0636,0 -2.70412,8.22372 5.25448,0 -2.48673,-8.22372 z m -3.43053,-4.3266 6.84515,0 8.06996,21.01795 -6.11345,0 -1.55884,-4.47507 -7.87378,0 -1.64368,4.47507 -5.67336,0 7.948,-21.01795 z m 29.01897,3.96605 c -0.19088,0 -0.42417,0.004 -0.71049,0.0339 -0.27572,0.0254 -0.57264,0.0848 -0.88017,0.17476 -0.30244,0.0848 -0.59915,0.2333 -0.86426,0.42417 -0.27571,0.20658 -0.4931,0.44009 -0.63096,0.67869 -0.15355,0.2439 -0.2439,0.4931 -0.29692,0.75291 -0.0479,0.25451 -0.0687,0.51431 -0.0687,0.79533 0,0.18537 0.0212,0.39236 0.0585,0.64157 0.0424,0.2439 0.11113,0.4931 0.23329,0.75291 0.11665,0.25451 0.29693,0.4878 0.52492,0.69989 0.27572,0.22821 0.56734,0.40297 0.88547,0.51432 0.32365,0.11155 0.63096,0.18536 0.94909,0.21717 0.29141,0.0382 0.56734,0.0581 0.80064,0.053 l 1.4475,0 0,-5.73699 -1.4475,0 z m 7.02543,17.0519 -5.57792,0 0,-7.35416 -1.83987,0 -3.65322,7.35416 -6.246,0 5.01589,-8.73274 c -0.79533,-0.22269 -1.4475,-0.53022 -1.95121,-0.94909 -0.48781,-0.40297 -0.87487,-0.86426 -1.13998,-1.37327 -0.24941,-0.51962 -0.44008,-1.04454 -0.52492,-1.56946 -0.0954,-0.53552 -0.14846,-1.02862 -0.13785,-1.47931 0,-0.74231 0.0742,-1.39448 0.21209,-1.97772 0.13785,-0.57264 0.31813,-1.06575 0.54612,-1.48462 0.2333,-0.42948 0.4772,-0.80063 0.74761,-1.09225 0.26511,-0.31305 0.53553,-0.56204 0.80064,-0.75822 0.16967,-0.12725 0.41908,-0.29692 0.75291,-0.46659 0.31813,-0.18028 0.75291,-0.34995 1.30434,-0.51432 0.54083,-0.18027 1.23542,-0.32364 2.05726,-0.42948 0.81654,-0.11665 1.81865,-0.18027 2.96393,-0.19088 l 6.67018,0 0,21.01795 z m 35.23315,-21.01795 5.57262,0 0,8.58958 0.0636,0 6.30963,-8.58958 6.71259,0 -7.73592,9.78787 8.34037,11.23008 -7.11556,0 -6.51111,-9.54928 -0.0636,0 0,9.54928 -5.57262,0 0,-21.01795 z m 34.74535,3.79108 c -0.69459,0.004 -1.30434,0.11156 -1.81865,0.33934 -0.50902,0.2333 -0.92789,0.54083 -1.28314,0.91728 -0.34443,0.38728 -0.63096,0.81654 -0.84305,1.29374 -0.22778,0.4772 -0.38727,0.965 -0.50371,1.46871 -0.11665,0.50371 -0.20148,0.98621 -0.2333,1.4475 -0.053,0.4825 -0.0687,0.88547 -0.0585,1.25132 -0.008,0.36564 0.004,0.78473 0.0585,1.25663 0.0297,0.46129 0.11665,0.94909 0.2333,1.4475 0.11665,0.50901 0.27572,0.99151 0.50371,1.47401 0.21209,0.4719 0.49841,0.90138 0.84305,1.28844 0.35504,0.37624 0.77412,0.68398 1.28314,0.90668 0.51431,0.23329 1.12406,0.34994 1.81865,0.35546 0.69989,-0.004 1.30434,-0.12174 1.81866,-0.35546 0.51431,-0.2227 0.93849,-0.53022 1.28313,-0.90668 0.34995,-0.38727 0.63627,-0.81654 0.85366,-1.28844 0.2176,-0.4825 0.38727,-0.965 0.4931,-1.47401 0.11665,-0.49841 0.1964,-0.98621 0.23839,-1.4475 0.0382,-0.4719 0.0585,-0.89077 0.0479,-1.25663 0.008,-0.36564 -0.008,-0.76882 -0.0479,-1.25132 -0.0424,-0.46129 -0.12216,-0.94379 -0.23839,-1.4475 -0.10604,-0.50371 -0.27571,-0.99151 -0.4931,-1.46871 -0.21718,-0.4772 -0.50371,-0.90668 -0.85366,-1.29374 -0.34443,-0.37667 -0.76882,-0.68398 -1.28313,-0.91728 -0.51432,-0.22821 -1.11877,-0.33425 -1.81866,-0.33934 m 0,-4.14632 c 0.45599,-0.004 0.99682,0.0212 1.60657,0.0742 0.62036,0.0585 1.27253,0.18579 1.97772,0.36606 0.7052,0.18028 1.42099,0.4666 2.12619,0.84305 0.70519,0.36564 1.37857,0.87487 2.03074,1.51113 0.61506,0.62036 1.10286,1.28313 1.46871,2.00954 0.38176,0.7264 0.64157,1.4422 0.83245,2.1792 0.19088,0.73701 0.30753,1.4369 0.37115,2.11028 0.0636,0.66278 0.0899,1.25132 0.0899,1.77094 0,0.52492 -0.0255,1.11346 -0.0899,1.77624 -0.0636,0.66807 -0.18027,1.37857 -0.37115,2.09967 -0.19088,0.73701 -0.45069,1.46871 -0.83245,2.18981 -0.36606,0.7211 -0.85365,1.39448 -1.46871,2.00954 -0.65217,0.63096 -1.32555,1.13997 -2.03074,1.51112 -0.7052,0.37116 -1.42099,0.65218 -2.12619,0.84305 -0.70519,0.18028 -1.35736,0.30753 -1.97772,0.36055 -0.60975,0.0636 -1.15058,0.0848 -1.60657,0.0742 -0.45069,0.0127 -0.99151,-0.008 -1.61187,-0.0742 -0.62036,-0.053 -1.28313,-0.18027 -1.98833,-0.36055 -0.71049,-0.19087 -1.42629,-0.47189 -2.14209,-0.84305 -0.70519,-0.37115 -1.37857,-0.88016 -2.00953,-1.51112 -0.59915,-0.62566 -1.08695,-1.30435 -1.45281,-2.03075 -0.36606,-0.71049 -0.64156,-1.4422 -0.83775,-2.17921 -0.18027,-0.7211 -0.30752,-1.42629 -0.37666,-2.08906 -0.0581,-0.66808 -0.0899,-1.25132 -0.0899,-1.77624 0,-0.51962 0.0339,-1.10816 0.0899,-1.77094 0.0585,-0.67338 0.18579,-1.37327 0.36606,-2.11028 0.19639,-0.737 0.46129,-1.4528 0.83775,-2.1792 0.36564,-0.72641 0.85365,-1.38918 1.46341,-2.00954 0.64156,-0.63626 1.31494,-1.14528 2.03074,-1.51113 0.7158,-0.38176 1.4263,-0.67338 2.13149,-0.85365 0.70519,-0.18537 1.36797,-0.30202 1.98833,-0.35546 0.60975,-0.0636 1.15057,-0.0904 1.60126,-0.0742 m 16.97766,0.35546 8.79636,0 4.43265,13.966 0.0687,0 4.65004,-13.966 8.45701,0 0,21.01794 -5.45066,0 0,-16.14522 0.0212,0 -5.33933,16.14522 -5.12723,0 -5.10602,-16.14522 -0.0636,0 0,16.14522 -5.33932,0 0,-21.01794 z m 33.6637,0 17.46547,0 0,21.01794 -5.58322,0 0,-17.05189 -6.29902,0 0,17.05189 -5.58323,0 0,-21.01794 z m 33.84398,4.3266 -0.0475,0 -2.70942,8.22372 5.24918,0 -2.49204,-8.22372 z m -3.41992,-4.3266 6.84515,0 8.07526,21.01794 -6.12935,0 -1.55355,-4.47506 -7.86847,0 -1.64369,4.47506 -5.67866,0 7.95331,-21.01794 z m 19.92038,0 5.58853,0 0,8.05405 6.60124,0 0,-8.05405 5.58853,0 0,21.01794 -5.58853,0 0,-9.00315 -6.60124,0 0,9.00315 -5.58853,0 0,-21.01794 z m 25.02641,0 5.58323,0 0,14.16749 6.48459,-14.16749 6.69669,0 0,21.01794 -5.58853,0 0,-14.16749 -6.48459,14.16749 -6.69139,0 0,-21.01794 z m 35.11121,3.96605 c -0.19088,0 -0.42948,0.004 -0.7158,0.0339 -0.27571,0.0254 -0.56734,0.0848 -0.87486,0.17476 -0.30753,0.0848 -0.59915,0.2333 -0.86426,0.42418 -0.28081,0.20657 -0.49311,0.44008 -0.63627,0.67868 -0.13785,0.2439 -0.2439,0.4931 -0.29692,0.75291 -0.053,0.25451 -0.0636,0.51432 -0.0585,0.79533 -0.004,0.18537 0.004,0.39237 0.0479,0.64157 0.0424,0.2439 0.11665,0.4931 0.2333,0.75291 0.11665,0.25451 0.29692,0.48781 0.52492,0.69989 0.27571,0.22821 0.56734,0.40297 0.88547,0.51432 0.32364,0.11156 0.63096,0.18536 0.94379,0.21718 0.30201,0.0382 0.57794,0.0581 0.81124,0.053 l 1.4369,0 0,-5.73699 -1.4369,0 z m 7.02012,17.05189 -5.58322,0 0,-7.35416 -1.82927,0 -3.65852,7.35416 -6.24599,0 5.01588,-8.73273 c -0.79533,-0.2227 -1.4475,-0.53022 -1.94591,-0.9491 -0.4931,-0.40297 -0.87486,-0.86426 -1.14527,-1.37327 -0.25451,-0.51962 -0.43479,-1.04453 -0.52492,-1.56945 -0.0954,-0.53553 -0.14295,-1.02863 -0.13235,-1.47932 0,-0.74231 0.0691,-1.39448 0.21209,-1.97772 0.13235,-0.57264 0.31813,-1.06574 0.54083,-1.48462 0.23329,-0.42948 0.4825,-0.80063 0.75291,-1.09225 0.26511,-0.31305 0.53022,-0.56204 0.80594,-0.75822 0.16415,-0.12725 0.40805,-0.29692 0.7423,-0.46659 0.31814,-0.18028 0.76882,-0.34995 1.30435,-0.51432 0.55673,-0.18027 1.23011,-0.32364 2.06256,-0.42947 0.81653,-0.11665 1.80805,-0.18028 2.96393,-0.19088 l 6.66487,0 0,21.01794 z M 440.18298,513.69722 c 0.0475,3.10709 0.4772,6.47399 2.96393,7.80485 0.77412,0.47189 1.6914,0.84305 2.51855,1.17709 2.28525,0.93849 4.3425,1.39448 6.20358,1.39448 3.44113,0 7.05723,-1.69141 9.45913,-4.85683 3.26086,-4.27357 6.07633,-10.73696 6.07633,-19.38486 0,-7.81545 -2.24283,-13.83345 -5.67866,-17.83131 -2.79427,-3.25026 -6.90878,-4.65534 -10.99147,-4.65534 -1.76564,0 -4.0721,0.2702 -5.57262,0.84835 l 0,0.008 -0.0212,0 -0.008,0 -0.008,0.008 -0.0297,0 -0.053,0.0212 -0.0297,0.008 -0.008,0.008 -0.008,0 c -0.50371,0.2176 -0.9544,0.4878 -1.39448,0.82184 -3.13891,2.37538 -3.41992,5.98619 -3.41992,9.50685 0,8.39869 0.017,16.72846 0.017,25.11125 m 0.0212,29.21515 c 0,3.75926 -0.53022,7.66168 3.62141,8.71682 0.90137,0.22821 2.49203,0.34995 3.26085,0.7211 0.79003,0.37667 1.32556,1.18239 1.31495,2.11028 0,0.88547 -0.57794,1.73912 -1.39978,2.12088 -0.56734,0.26511 -1.42099,0.32365 -2.03075,0.40806 -2.85258,0.43478 -5.57261,0.85896 -8.11767,1.41039 -3.65322,0.79003 -7.50793,1.4581 -11.12403,2.34357 -1.193,0.25451 -2.4125,0.13234 -2.53976,-1.18239 -0.0212,-1.37327 -0.0904,-3.19723 -0.0904,-4.11981 0.11156,-23.65314 0.053,-47.32749 0.053,-70.99123 0,-3.75396 0.51961,-7.66169 -3.63201,-8.71683 -0.90668,-0.22778 -2.49204,-0.35546 -3.27146,-0.7264 -0.77943,-0.37667 -1.31495,-1.17709 -1.31495,-2.09967 0.008,-0.88547 0.58324,-1.73913 1.39978,-2.12619 0.57794,-0.26511 1.42629,-0.31261 2.05195,-0.40805 2.84729,-0.43479 5.56202,-0.85366 8.10708,-1.41039 3.65852,-0.77943 7.50262,-1.45281 11.11872,-2.33827 1.2089,-0.26511 2.41781,-0.14847 2.53445,1.17709 0.0382,1.37327 0.0636,3.19192 0.0954,4.11981 0.0297,1.54824 1.20361,2.21102 2.48144,1.58536 2.6458,-1.61187 5.13253,-3.46234 7.83666,-4.84091 9.00844,-4.60232 20.06354,-1.15589 26.28303,6.58533 4.0986,5.11133 5.84833,11.44747 6.55883,18.66377 2.11558,21.59588 -13.9448,42.3169 -38.99772,36.92456 -3.56839,-0.64157 -4.23647,0.99151 -4.23647,2.42841 -0.008,3.26085 0.0382,6.43157 0.0382,9.64471 M 311.93196,439.82902 c 7.36476,0 14.14628,-0.11114 19.66058,-0.10605 4.03498,0 7.39127,0.50371 9.81438,0.74761 0.0254,0 0.0479,0.004 0.0585,0.017 0.85895,0.0904 1.52173,0.80063 1.53233,1.66489 l 0,0.0254 0,0.004 0.97561,13.44109 c 0.0636,0.74762 0.10053,1.38918 -0.2333,2.10498 -0.4984,1.01272 -1.53764,1.72852 -2.74654,1.72852 -1.12407,-0.0127 -2.12618,-0.65217 -2.6405,-1.56945 -0.18027,-0.30753 -0.2702,-0.59915 -0.38176,-0.93849 -1.08165,-3.42523 -2.33297,-5.85894 -3.71154,-7.27463 -2.04665,-2.09437 -7.08375,-4.52278 -15.06887,-4.52278 l -5.44536,0 c -2.68292,0 -4.28949,0.20148 -4.8091,0.62036 -0.51432,0.41866 -0.76882,1.83986 -0.76882,4.25237 l 0,22.51316 c 0,1.08695 -0.11156,2.30646 0.21209,3.3563 0.51431,1.68079 1.88228,3.01695 3.6108,3.47824 0.92258,0.23839 1.9194,0.16967 2.85789,0.16967 l 3.50475,0 c 5.94908,0 9.54928,-0.53022 10.8112,-1.60657 1.00742,-0.85365 1.84517,-3.20253 2.52915,-7.02542 0.0742,-0.42417 0.11156,-0.92788 0.26511,-1.33085 0.38728,-1.01272 1.37858,-1.75503 2.51325,-1.75503 1.18769,0 2.19511,0.77942 2.55566,1.82926 l 0,26.94051 c -0.37115,1.02332 -1.36797,1.77623 -2.53445,1.78684 -1.03924,-0.008 -1.95652,-0.60976 -2.3913,-1.47401 -0.2439,-0.50371 -0.29692,-1.05514 -0.38727,-1.59067 -0.63096,-3.66912 -1.47932,-5.98619 -2.55036,-6.91407 -1.34146,-1.16119 -4.95226,-1.73913 -10.8112,-1.73913 l -3.82289,0 c -0.965,0 -1.88758,-0.0424 -2.83668,0.2702 -1.59596,0.54613 -2.86319,1.85578 -3.32978,3.49416 -0.26511,0.90668 -0.19597,1.82926 -0.19597,2.75715 l -0.18028,15.73164 c -0.0581,5.2916 0.21209,8.87589 0.62036,10.68924 0.41866,1.80806 1.35736,3.13361 2.86319,3.8335 1.09226,0.50901 2.48674,0.76882 4.11981,0.91198 1.62248,0.13234 4.20996,0.29692 7.73592,0.20148 10.99678,-0.26002 15.93843,-2.8791 20.34987,-14.25763 0.4931,-1.06044 0.84835,-2.91621 3.26615,-2.96393 1.45281,0 2.67762,1.01272 2.99045,2.36478 0.19088,0.79533 -0.0382,1.59597 -0.18028,2.38599 -0.35503,1.89819 -0.74231,3.95545 -1.18769,6.13996 -0.85896,4.26827 -1.60127,7.42309 -2.19511,9.49095 -0.008,0.0212 -0.0212,0.0339 -0.0339,0.0424 -0.21209,0.62036 -0.76352,1.07105 -1.43159,1.13998 l -0.0297,0 c -2.15269,0.54082 -4.94695,0.80593 -8.48352,0.80593 -6.29372,0.0127 -14.48563,0.29184 -23.45696,0.33934 -9.63411,0.053 -18.53121,0.16968 -25.12715,0.0692 -3.70094,-0.0585 -6.78152,-0.58855 -8.75924,-0.90138 l 0.008,-0.0254 c -0.18028,-0.0254 -0.36607,-0.0848 -0.54613,-0.15355 -0.79003,-0.37116 -1.32555,-1.15588 -1.32555,-2.07847 0,-0.9597 0.63096,-1.80275 1.48992,-2.12088 0.55143,-0.19597 1.25132,-0.13234 1.81335,-0.18027 3.71155,-0.29693 6.16117,-1.17709 7.23221,-2.59278 1.34676,-1.81336 2.02014,-6.53762 2.02014,-14.15689 l 0.28632,-46.161 c 0.053,-7.53443 -0.60975,-12.23219 -1.81335,-14.08796 -0.93319,-1.4475 -3.04877,-2.33827 -6.33084,-2.6564 -0.45068,-0.0382 -0.99681,-0.0212 -1.42629,-0.14847 -0.91728,-0.29692 -1.59066,-1.16648 -1.59066,-2.18451 0,-0.99681 0.66277,-1.85046 1.56945,-2.15269 0.13235,-0.0424 0.27063,-0.0797 0.39746,-0.0904 l 0,-0.008 c 1.63307,-0.2702 3.97665,-0.55674 6.88226,-0.63097 6.13465,-0.14846 14.74543,0.0479 24.21517,0.053 m 341.14919,31.64356 c 0,-0.44539 -0.0382,-1.11877 0.15356,-1.54294 0.18027,-0.37116 0.47189,-0.65218 0.85365,-0.83245 0.45069,-0.20148 1.17709,-0.19088 1.6702,-0.23839 0.53552,-0.0636 1.09755,-0.13786 1.66489,-0.21209 3.51006,-0.43478 6.39446,-0.80063 8.62139,-1.10285 0.67338,-0.0904 1.6967,-0.31305 2.39659,-0.31305 0.7052,0 1.30434,0.43478 1.56945,1.04454 0.17477,0.42417 0.12726,0.90137 0.12726,1.34146 0,15.8695 0.0475,31.68597 0.0475,47.58199 0.11155,3.78047 0.88546,7.75712 5.27039,7.97451 l 0.0797,0 c 0.12174,0 0.23839,0 0.35504,0.0212 l 0.0848,0.008 0,0.008 c 1.04984,0.20148 1.83987,1.04984 1.83987,2.23223 0,1.18769 -1.01272,2.34357 -2.27995,2.27464 l -0.16967,0 -13.38807,0 c -0.14846,0 -0.29692,0.008 -0.45599,0.008 -2.1739,0 -4.15693,-0.83775 -5.64685,-2.21102 -1.39448,-1.09226 -2.04665,-2.89501 -3.09118,-3.28737 -1.27253,-0.4719 -3.26616,0.15355 -6.25661,2.09967 -2.31706,1.48992 -5.88014,2.96924 -7.73061,3.61081 -1.86107,0.65747 -3.86001,0.9809 -6.0074,0.9809 -5.7635,0 -10.20144,-1.702 -13.31384,-5.10072 -3.123,-3.38811 -4.67124,-7.87377 -4.67124,-13.4623 0,-10.63092 -0.0793,-21.14519 -0.0793,-31.70719 0,-2.50264 -0.26511,-4.16753 -0.77942,-4.95226 -0.50902,-0.79002 -1.69141,-1.32555 -3.55778,-1.61187 -0.7211,-0.10604 -1.71262,-0.14846 -2.3966,-0.47189 -0.76882,-0.37116 -1.29374,-1.15058 -1.28314,-2.05196 0,-0.86425 0.56734,-1.6914 1.35737,-2.06786 0.57794,-0.27062 1.33616,-0.20699 1.95651,-0.23329 2.67231,-0.13786 5.68927,-0.33425 9.02436,-0.74761 3.51536,-0.44009 6.39976,-0.80594 8.61608,-1.11347 0.67868,-0.0848 1.70731,-0.31261 2.3966,-0.31261 0.70519,0 1.30434,0.44008 1.56415,1.04453 0.18027,0.42418 0.12725,0.90137 0.12725,1.35206 0,12.57683 0.0742,26.80265 0.0742,39.38478 0,3.91833 0.85366,6.79743 2.57687,8.6585 1.71262,1.85578 4.02968,2.79427 6.89817,2.79427 2.4072,0 4.86212,-0.7052 7.37007,-2.10498 3.07528,-1.6808 4.41143,-4.69245 4.46445,-7.31174 -0.053,-13.13886 -0.0742,-26.29364 -0.053,-39.4378 M 380.6303,466.77079 c 8.35098,-0.64687 16.69665,0.24942 24.2788,4.85682 3.57899,2.17921 5.36053,5.69457 5.36053,10.51958 0,4.00316 -1.58006,7.2163 -4.72426,9.6288 -1.38918,1.01272 -3.09119,1.94061 -5.10073,2.75715 -1.12937,0.46129 -1.07104,0.84305 -1.09225,1.06574 0,0.12726 -0.12725,0.65748 1.01802,0.9597 3.34569,0.86956 6.15056,2.20572 8.37219,4.01377 3.53657,2.8791 5.3022,6.54823 5.3022,11.01268 0,6.51111 -3.123,11.24068 -9.34779,14.23112 -5.40294,2.59808 -13.11765,3.91303 -23.16003,3.91303 l -7.06784,0 -0.0742,0 -9.64471,0 -3.89182,0 -0.0212,0 c -0.92789,0 -1.69671,-0.76882 -1.69671,-1.70731 l 0.008,-0.0475 -0.008,0 c 0,-14.88329 -0.0255,-29.69235 -0.0255,-44.55443 -0.0691,-5.81652 0.053,-6.40506 -4.37962,-8.4093 -0.79533,-0.32873 -1.35206,-1.07635 -1.39448,-1.98302 -0.0424,-0.85366 0.4719,-1.72322 1.24072,-2.13149 0.58854,-0.31813 1.37857,-0.37115 2.24283,-0.54613 7.84196,-1.59066 16.12931,-3.02225 23.8069,-3.57898 m -4.84091,10.09539 c -0.008,4.90985 -0.017,9.63411 -0.0255,14.54926 0.14846,2.12088 1.85047,2.45492 2.59808,2.51854 l 0.91198,0 c 3.81759,0 7.01482,-0.66277 9.52276,-2.42841 2.50794,-1.77093 3.76987,-4.37432 3.76987,-7.81545 0,-3.53127 -1.02863,-6.15056 -3.06998,-7.87907 -2.04135,-1.72322 -4.78789,-2.57688 -8.23432,-2.57688 -2.51325,0 -4.04028,0.18537 -4.60762,0.55143 -0.54613,0.37667 -0.86426,1.39448 -0.86426,3.08058 m 4.11451,22.53968 c -0.45069,-0.004 -0.91198,-0.017 -1.36267,-0.0297 -2.28525,0.18536 -2.72003,1.702 -2.67761,2.78365 l -0.0424,13.02222 c 0,3.72215 0.62036,6.30963 1.81336,7.71471 0.94909,1.10816 2.51855,1.6755 4.75077,1.6755 3.62671,0 6.7126,-1.14528 9.27356,-3.41993 2.55036,-2.27994 3.8335,-5.50899 3.8335,-9.69243 0,-8.1919 -5.17496,-12.05191 -15.58849,-12.05191 m 143.18075,10.71576 -0.008,-10.59381 0,-0.0691 0,-0.0691 c 0,-1.47401 -1.1983,-2.67761 -2.68291,-2.67761 -0.52492,0 -1.00742,0.14846 -1.41569,0.40296 l -5.25979,2.97984 c -4.97347,2.82608 -7.58215,7.34886 -7.48141,12.04661 0.10604,4.65004 3.78577,8.43581 8.40399,8.43581 3.6055,0 6.69139,-2.27995 7.90029,-5.48248 0.62036,-1.65429 0.54613,-3.25555 0.54613,-4.97347 m 16.45804,-26.48982 0,31.17167 c 0,2.78366 0.34995,4.8197 1.04984,6.06572 0.58324,1.07105 1.32555,1.6861 2.22162,1.84517 1.4316,0.22778 2.51855,1.47401 2.51855,2.96924 0,1.12406 -0.60445,2.09437 -1.50583,2.61928 l 0,0 c -2.55036,1.46341 -5.58852,2.59278 -8.75394,2.61929 -2.86849,0 -5.2863,-0.68928 -7.2216,-1.97242 -2.18981,-1.4634 -3.28737,-3.99256 -6.33614,-3.99256 -2.6511,0 -4.44325,2.22163 -6.44218,3.62141 -2.08907,1.46341 -4.18874,2.34357 -7.53973,2.34357 -5.09542,0 -9.28947,-1.79744 -12.59274,-5.37113 -3.27146,-3.57899 -4.93105,-7.51322 -4.93105,-11.7868 0,-6.9777 3.58959,-11.90876 10.74757,-14.78785 4.00316,-1.59066 8.00633,-3.18663 11.99889,-4.89394 2.96923,-1.26192 5.39764,-2.37008 7.25872,-3.30857 l 0.008,0 0.008,0 c 1.79744,-0.82715 3.04876,-2.64581 3.04876,-4.74548 l -0.008,-0.21209 0,-1.76563 c 0,-6.35735 -1.89289,-11.72318 -7.41778,-11.93527 -9.8409,-0.38175 -10.66274,8.09647 -11.88225,14.4167 -0.46129,2.34358 -2.44962,3.64792 -4.54929,3.64792 -1.58006,0 -3.26086,-0.58855 -5.02119,-1.80805 -2.14209,-1.47932 -2.15269,-3.06998 -2.15269,-4.74018 0,-9.89921 10.77938,-17.60862 23.62132,-17.43895 14.74013,0.19088 23.87053,3.67443 23.87053,17.43895 m 54.16203,-13.11765 c 4.23116,2.8844 6.34674,6.83454 6.34674,11.86103 0,1.6755 -0.39237,3.16012 -1.18239,4.45916 -0.79533,1.30434 -1.72322,2.34887 -2.78896,3.1336 -1.07105,0.80063 -2.59278,1.70731 -4.60232,2.58748 -0.9544,0.42417 -1.98302,0.82714 -3.10179,1.2195 -1.38918,0.45599 -1.54294,1.65429 -0.15906,2.06256 3.88651,0.965 7.14207,2.45492 9.75075,4.46446 3.43053,2.6511 5.15374,6.38916 5.15374,11.21947 0,6.04451 -2.81016,10.80059 -8.4358,14.24172 -5.62564,3.43583 -12.76771,5.15904 -21.41561,5.15904 -4.27888,0 -8.23433,-0.56203 -11.86103,-1.67019 -3.62141,-1.12407 -6.4687,-2.59808 -8.51535,-4.46976 -1.29373,-1.11876 -2.22162,-2.30646 -2.77835,-3.55248 -0.56204,-1.26722 -0.83775,-2.58217 -0.83775,-3.98195 0,-1.6755 0.71049,-3.27677 2.1633,-4.8091 1.43159,-1.53764 3.08588,-2.29586 4.95226,-2.29586 2.78896,0 5.15374,2.03075 7.11026,6.12935 1.30434,2.8844 2.9056,5.11663 4.8144,6.70199 1.90349,1.57475 3.93424,2.37008 6.06042,2.37008 2.79426,0 5.16965,-1.2142 7.12616,-3.6267 1.94591,-2.42311 2.92682,-5.39765 2.92682,-8.92892 0,-4.00316 -0.79533,-7.20569 -2.37539,-9.6288 -4.96286,-7.6829 -6.68608,-0.30753 -12.30642,-4.05089 -0.9756,-0.65217 -1.4634,-1.76563 -1.4634,-3.34039 0,-1.48461 0.54082,-2.58747 1.61187,-3.28206 4.92044,-3.20784 7.17388,1.77624 10.48246,-2.30646 1.37857,-1.6861 2.09437,-4.03498 2.09437,-7.11026 0,-3.25555 -0.92789,-5.90135 -2.79427,-7.948 -3.75926,-4.14633 -8.64789,-3.31919 -13.07523,-0.59385 -3.77517,2.31706 -6.28842,6.32553 -8.36158,11.79741 -0.38685,0.98621 -1.35206,1.6861 -2.49204,1.6861 -1.31494,0 -2.43901,-0.99152 -2.61929,-2.27465 -0.0424,-0.34443 -0.008,-0.66278 0.008,-1.00742 0.12725,-1.48992 0.31304,-3.14951 0.53552,-4.97347 0.44008,-3.3775 0.85365,-5.72638 1.25662,-7.05193 l 0,-0.004 c 0.13234,-0.40806 0.37625,-0.79003 0.69989,-1.06044 l 0.008,-0.008 c 1.56945,-1.38387 3.86,-2.58217 6.81863,-3.58429 8.99254,-3.03816 23.65844,-2.69352 31.2406,2.47083 m 126.37806,6.80803 c 0.008,4.88333 -0.0339,12.83134 -0.0212,17.71467 -0.14846,2.09437 -1.83456,2.43901 -2.57687,2.49734 l -0.91728,0 c -3.78047,0 -6.9618,-0.65217 -9.44323,-2.41781 -3.58429,-2.56096 -5.02649,-6.38385 -4.94696,-10.14312 0.16416,-7.24281 3.99256,-11.66485 12.16326,-11.66485 2.49204,0 4.3213,0.58855 4.87803,0.97031 0.54613,0.36055 0.86426,1.37857 0.86426,3.04346 m -16.39972,-9.09328 c -8.92891,0.89607 -18.76981,5.44006 -18.69027,15.8589 0.0687,9.36369 6.83984,13.20249 14.58106,15.81117 0.77943,0.28081 2.51325,1.06575 1.15588,3.81229 -2.75184,5.10602 -3.95544,7.14737 -7.64578,12.53441 -2.12618,3.44643 -6.12405,7.18979 -8.79106,8.51534 -0.80063,0.40297 -1.50582,0.31814 -2.23753,0.65217 -0.75291,0.36055 -1.24071,1.09226 -1.23011,2.04666 0,1.32555 1.09226,2.32766 2.3966,2.25874 l 12.96389,0 c 0.14846,0 0.29693,0.008 0.44539,0.008 4.03498,-0.10096 5.55671,-2.26935 7.55034,-5.12723 l 11.73378,-19.34775 c 1.24071,-2.04665 3.67973,-1.52704 3.69033,1.16648 0.0424,7.88438 0.0691,13.66379 0.0691,21.53756 l 0,0.0479 c 0,0.92789 0.76352,1.69141 1.69141,1.69141 l 0.0742,0 13.44109,0 0.0212,0 c 0.92788,0 1.6808,-0.76352 1.6808,-1.69141 l 0,-0.0479 c 0,-14.93631 -0.0742,-32.77293 -0.0742,-47.68803 0,-5.72638 0.34994,-6.65427 4.44855,-8.1654 0.77942,-0.32365 1.33615,-1.07635 1.38387,-1.95651 0.0382,-0.85896 -0.4772,-1.71792 -1.24602,-2.13679 -0.35546,-0.19088 -1.08695,-0.37667 -1.51643,-0.41357 -10.3393,-0.16416 -26.47921,-0.32365 -35.89593,0.63096"
       id="path36"
       style="fill:#3a5892;fill-opacity:1;fill-rule:nonzero;stroke:none" />
    <path
       d="m 128.51298,587.6612 c 3.80699,1.46341 7.86848,2.20572 11.93527,2.20572 4.06149,0.0127 8.13888,-0.7211 11.96177,-2.18981 43.94468,-25.2385 79.97847,-87.40686 82.30614,-137.83083 -2.55036,-41.07088 -64.14078,-43.73789 -94.2414,-43.55231 -29.48557,-0.18579 -91.759968,3.3775 -94.2414,43.56292 2.33297,50.40806 38.350851,112.56581 82.27962,137.80431"
       id="path40"
       style="fill:#0094d0;fill-opacity:1;fill-rule:evenodd;stroke:none" />
    <path
       d="m 139.50925,409.28068 c -28.21834,-0.15907 -87.104632,2.55036 -89.506531,39.61808 l 0,0 c 1.071045,21.94052 6.680779,45.64138 20.280936,67.86292 l 0,0 C 96.110697,476.18921 232.71672,448.9942 225.34665,435.50538 l 0,0 c -14.51744,-24.01368 -56.58514,-26.2247 -82.80454,-26.23001 l 0,0 c -1.04454,0 -2.05195,0.004 -3.03286,0.004"
       id="path60"
       style="fill:url(#linearGradient54);stroke:none" />
    <path
       d="m 140.12748,548.11625 0.21718,-0.2545 c 19.80904,-21.69133 35.26497,-38.61597 55.07401,-60.31259 6.12935,-6.71789 10.26507,-10.3287 4.49097,-17.33291 l -12.00419,-14.59167 -29.43255,-7.59276 -18.34563,0 -18.34563,0 -29.427238,7.59276 c -4.512176,5.48248 -7.725313,9.38491 -12.23749,14.86739 -4.273577,5.19085 -0.328736,11.3149 4.199347,16.27777 l 55.593621,61.09201 0.21718,0.2545 z"
       id="path72"
       style="fill:#ffffff;fill-opacity:1;fill-rule:evenodd;stroke:none" />
    <path
       d="m 93.125555,458.11399 c 0.62566,1.30964 1.22481,2.66701 1.855772,3.97665 0.715798,1.48992 0.662776,1.46871 -0.132343,2.91622 -1.988327,3.60549 -3.981956,7.13676 -5.964981,10.73696 l 9.146092,-9.1463 c 1.871679,-1.87168 1.855772,-1.81866 4.506875,-1.59066 4.23646,0.37666 8.47823,0.68398 12.72529,1.06044 -8.40399,-1.98833 -16.680735,-4.00317 -22.136705,-7.95331 z m 94.114145,0 c -6.29372,4.38492 -14.26823,6.2619 -22.26926,7.95331 4.15162,-0.36607 6.32023,-0.42948 10.47185,-0.79533 2.70413,-0.24942 4.86213,-0.58855 6.76032,1.32555 l 9.1463,9.1463 c -1.85047,-3.3669 -3.72215,-6.69668 -5.56732,-10.07419 -1.16648,-2.11028 -1.17709,-2.07846 -0.13234,-4.24176 0.52492,-1.09756 1.06044,-2.21102 1.59066,-3.31388 z m -66.14501,8.88119 c 3.82289,1.16119 7.72001,2.28525 11.5323,3.44644 4.3478,1.32024 3.95544,1.24601 4.90454,5.69987 0.81653,3.80698 1.57475,7.60336 2.38599,11.39974 l 0.13234,0.79533 0.26511,-0.79533 c 3.82819,-17.92146 1.32025,-15.23854 18.82283,-20.54605 -12.66697,2.18981 -25.38696,2.18981 -38.04332,0 z m -4.77199,6.23009 -5.3022,10.73697 c -1.4475,2.95333 -6.45809,3.63731 -9.67653,2.91621 -4.893932,-1.08695 -5.710472,-1.29374 -10.604407,-2.38599 5.758195,4.316 10.917237,7.28523 15.376397,11.5323 10.96496,10.45595 18.58423,22.87371 27.30636,38.83865 l -13.65318,-31.94579 c -0.98091,-2.27464 -3.01696,-5.2969 0.26511,-7.15797 2.78896,-1.58006 8.93952,0.14294 15.6415,0.66277 l -15.37639,-5.3022 c -8.38809,-1.6808 -4.42204,-10.59911 -3.97666,-17.89495 z m 49.0454,0 c 0.45069,7.29584 4.40083,16.21415 -3.97665,17.89495 l -15.3764,5.3022 c 6.70729,-0.51961 12.85255,-2.24283 15.64151,-0.66277 3.28206,1.86107 1.25132,4.88333 0.26511,7.15797 l -13.78573,31.94579 c 8.72212,-15.96494 16.34139,-28.3827 27.30635,-38.83865 4.45386,-4.24707 9.74546,-7.2163 15.50895,-11.5323 -4.89923,1.09225 -5.71047,1.29904 -10.60441,2.38599 -3.21844,0.7211 -8.22902,0.0382 -9.67652,-2.91621 l -5.30221,-10.73697 z"
       id="path76"
       style="fill:#0094d0;fill-opacity:1;fill-rule:evenodd;stroke:none" />
  </g>
</svg>
